<svg width="398" height="90" viewBox="0 0 398 90" fill="none" xmlns="http://www.w3.org/2000/svg">
<g clip-path="url(#clip0_707_66)">
<path d="M262.45 70.1152H265.45V72.1152H265.55C265.85 71.5152 266.35 70.9152 266.95 70.4152C267.55 69.9152 268.45 69.7152 269.45 69.7152C270.25 69.7152 271.05 69.8152 271.65 70.1152C272.25 70.4152 272.75 70.8152 273.05 71.2152C273.45 71.7152 273.65 72.2152 273.85 72.8152C274.05 73.4152 274.05 74.0152 274.05 74.7152V82.7152H270.85V76.3152C270.85 75.9152 270.85 75.6152 270.75 75.1152C270.75 74.7152 270.65 74.3152 270.45 73.9152C270.25 73.5152 270.05 73.2152 269.75 72.9152C269.45 72.6152 268.95 72.5152 268.45 72.5152C267.95 72.5152 267.45 72.6152 267.15 72.8152C266.75 73.0152 266.45 73.2152 266.25 73.5152C266.05 73.8152 265.85 74.1152 265.75 74.5152C265.65 74.9152 265.55 75.3152 265.55 75.7152V82.6152H262.45V70.1152V70.1152Z" fill="#3AA491"/>
<path d="M279.65 77.5152C279.75 78.5152 280.15 79.2152 280.75 79.7152C281.35 80.2152 282.15 80.5152 283.05 80.5152C283.85 80.5152 284.55 80.3152 285.05 80.0152C285.55 79.7152 286.05 79.3152 286.45 78.8152L288.75 80.5152C288.05 81.4152 287.15 82.1152 286.25 82.5152C285.35 82.9152 284.35 83.1152 283.35 83.1152C282.35 83.1152 281.45 82.9152 280.65 82.6152C279.85 82.3152 279.05 81.8152 278.45 81.2152C277.85 80.6152 277.35 79.9152 276.95 79.1152C276.55 78.3152 276.45 77.4152 276.45 76.4152C276.45 75.4152 276.65 74.5152 276.95 73.7152C277.25 72.9152 277.85 72.2152 278.45 71.6152C279.05 71.0152 279.85 70.6152 280.65 70.2152C281.45 69.9152 282.35 69.7152 283.35 69.7152C284.25 69.7152 285.05 69.9152 285.75 70.2152C286.45 70.5152 287.15 71.0152 287.65 71.5152C288.15 72.1152 288.55 72.8152 288.85 73.7152C289.15 74.6152 289.25 75.5152 289.25 76.7152V77.6152H279.65V77.5152V77.5152ZM286.25 75.2152C286.25 74.3152 285.95 73.5152 285.35 73.0152C284.75 72.5152 284.05 72.2152 282.95 72.2152C281.95 72.2152 281.25 72.5152 280.65 73.0152C280.05 73.5152 279.75 74.3152 279.65 75.2152H286.25V75.2152Z" fill="#3AA491"/>
<path d="M291.85 70.1152H294.85V72.0152H294.95C295.45 71.2152 296.05 70.7152 296.85 70.3152C297.65 69.9152 298.45 69.8152 299.35 69.8152C300.35 69.8152 301.15 70.0152 301.95 70.3152C302.75 70.6152 303.35 71.1152 303.95 71.7152C304.45 72.3152 304.95 73.0152 305.15 73.8152C305.45 74.6152 305.55 75.5152 305.55 76.4152C305.55 77.3152 305.35 78.2152 305.05 79.0152C304.75 79.8152 304.35 80.5152 303.75 81.1152C303.25 81.7152 302.55 82.2152 301.85 82.5152C301.15 82.8152 300.25 83.0152 299.35 83.0152C298.75 83.0152 298.25 82.9152 297.75 82.8152C297.25 82.7152 296.85 82.5152 296.55 82.3152C296.15 82.1152 295.85 81.9152 295.65 81.7152L295.05 81.1152H294.95V88.8152H291.75V70.1152H291.85ZM302.35 76.4152C302.35 75.9152 302.25 75.4152 302.05 75.0152C301.85 74.6152 301.65 74.1152 301.35 73.8152C301.05 73.4152 300.65 73.2152 300.15 73.0152C299.65 72.8152 299.15 72.7152 298.55 72.7152C297.95 72.7152 297.45 72.8152 296.95 73.0152C296.45 73.2152 296.05 73.5152 295.75 73.8152C295.45 74.2152 295.15 74.6152 295.05 75.0152C294.95 75.4152 294.75 75.9152 294.75 76.4152C294.75 76.9152 294.85 77.4152 295.05 77.8152C295.25 78.2152 295.45 78.7152 295.75 79.0152C296.05 79.4152 296.45 79.6152 296.95 79.8152C297.45 80.0152 297.95 80.1152 298.55 80.1152C299.15 80.1152 299.65 80.0152 300.15 79.8152C300.65 79.6152 300.95 79.3152 301.35 79.0152C301.65 78.6152 301.95 78.2152 302.05 77.8152C302.15 77.4152 302.35 76.9152 302.35 76.4152Z" fill="#3AA491"/>
<path d="M311.15 71.8152C311.45 71.3152 311.85 70.8152 312.55 70.4152C313.15 70.0152 313.95 69.8152 314.95 69.8152C315.75 69.8152 316.55 69.9152 317.15 70.2152C317.75 70.5152 318.25 70.9152 318.55 71.3152C318.95 71.8152 319.15 72.3152 319.35 72.9152C319.55 73.5152 319.55 74.1152 319.55 74.8152V82.8152H316.35V76.4152C316.35 76.0152 316.35 75.7152 316.25 75.2152C316.25 74.8152 316.15 74.4152 315.95 74.0152C315.75 73.6152 315.55 73.3152 315.25 73.0152C314.95 72.7152 314.45 72.6152 313.95 72.6152C313.45 72.6152 312.95 72.7152 312.65 72.9152C312.25 73.1152 311.95 73.3152 311.75 73.6152C311.55 73.9152 311.35 74.2152 311.25 74.6152C311.15 75.0152 311.05 75.4152 311.05 75.8152V82.7152H307.85V62.7152H311.05V71.8152H311.15V71.8152Z" fill="#3AA491"/>
<path d="M322.65 70.1152H325.85V72.1152H325.95C326.35 71.4152 326.85 70.8152 327.45 70.4152C328.15 70.0152 328.85 69.8152 329.65 69.8152C329.85 69.8152 330.05 69.8152 330.25 69.9152C330.45 69.9152 330.65 70.0152 330.85 70.0152V73.1152C330.55 73.0152 330.35 73.0152 330.05 72.9152C329.75 72.8152 329.55 72.8152 329.25 72.8152C328.55 72.8152 327.95 72.9152 327.45 73.2152C326.95 73.5152 326.65 73.8152 326.45 74.1152C326.25 74.4152 326.05 74.8152 325.95 75.2152C325.85 75.6152 325.85 75.8152 325.85 76.0152V82.8152H322.65V70.1152V70.1152Z" fill="#3AA491"/>
<path d="M331.25 76.4152C331.25 75.4152 331.45 74.5152 331.75 73.7152C332.05 72.9152 332.65 72.2152 333.25 71.6152C333.85 71.0152 334.65 70.6152 335.45 70.2152C336.25 69.9152 337.15 69.7152 338.15 69.7152C339.15 69.7152 340.05 69.9152 340.85 70.2152C341.65 70.5152 342.45 71.0152 343.05 71.6152C343.65 72.2152 344.15 72.9152 344.55 73.7152C344.95 74.5152 345.05 75.4152 345.05 76.4152C345.05 77.4152 344.85 78.3152 344.55 79.1152C344.25 79.9152 343.65 80.6152 343.05 81.2152C342.45 81.8152 341.75 82.2152 340.85 82.6152C340.05 82.9152 339.15 83.1152 338.15 83.1152C337.15 83.1152 336.25 82.9152 335.45 82.6152C334.65 82.3152 333.85 81.8152 333.25 81.2152C332.65 80.6152 332.15 79.9152 331.75 79.1152C331.35 78.3152 331.25 77.4152 331.25 76.4152ZM334.45 76.4152C334.45 76.9152 334.55 77.4152 334.75 77.8152C334.95 78.3152 335.15 78.7152 335.45 79.0152C335.75 79.3152 336.15 79.6152 336.65 79.8152C337.15 80.0152 337.65 80.1152 338.25 80.1152C338.85 80.1152 339.35 80.0152 339.85 79.8152C340.35 79.6152 340.75 79.3152 341.05 79.0152C341.35 78.7152 341.65 78.2152 341.75 77.8152C341.95 77.3152 341.95 76.9152 341.95 76.4152C341.95 75.9152 341.85 75.4152 341.75 75.0152C341.55 74.5152 341.35 74.1152 341.05 73.8152C340.75 73.5152 340.35 73.2152 339.85 73.0152C339.35 72.8152 338.85 72.7152 338.25 72.7152C337.65 72.7152 337.15 72.8152 336.65 73.0152C336.15 73.2152 335.75 73.5152 335.45 73.8152C335.15 74.1152 334.85 74.6152 334.75 75.0152C334.55 75.5152 334.45 75.9152 334.45 76.4152Z" fill="#3AA491"/>
<path d="M347.55 62.8152H350.75V82.8152H347.55V62.8152Z" fill="#3AA491"/>
<path d="M353.25 76.4152C353.25 75.4152 353.45 74.5152 353.75 73.7152C354.15 72.9152 354.55 72.2152 355.25 71.6152C355.85 71.0152 356.55 70.6152 357.45 70.2152C358.35 69.8152 359.15 69.7152 360.15 69.7152C361.15 69.7152 362.05 69.9152 362.85 70.2152C363.65 70.5152 364.45 71.0152 365.05 71.6152C365.65 72.2152 366.15 72.9152 366.55 73.7152C366.95 74.5152 367.05 75.4152 367.05 76.4152C367.05 77.4152 366.85 78.3152 366.55 79.1152C366.15 79.9152 365.65 80.6152 365.05 81.2152C364.45 81.8152 363.75 82.2152 362.85 82.6152C362.05 82.9152 361.15 83.1152 360.15 83.1152C359.15 83.1152 358.25 82.9152 357.45 82.6152C356.65 82.3152 355.85 81.8152 355.25 81.2152C354.65 80.6152 354.15 79.9152 353.75 79.1152C353.45 78.3152 353.25 77.4152 353.25 76.4152ZM356.45 76.4152C356.45 76.9152 356.55 77.4152 356.75 77.8152C356.95 78.2152 357.15 78.7152 357.45 79.0152C357.75 79.4152 358.15 79.6152 358.65 79.8152C359.15 80.0152 359.65 80.1152 360.25 80.1152C360.85 80.1152 361.35 80.0152 361.85 79.8152C362.35 79.6152 362.75 79.3152 363.05 79.0152C363.35 78.6152 363.65 78.2152 363.75 77.8152C363.85 77.4152 364.05 76.9152 364.05 76.4152C364.05 75.9152 363.95 75.4152 363.75 75.0152C363.55 74.6152 363.35 74.1152 363.05 73.8152C362.75 73.4152 362.35 73.2152 361.85 73.0152C361.35 72.8152 360.85 72.7152 360.25 72.7152C359.65 72.7152 359.15 72.8152 358.65 73.0152C358.15 73.2152 357.75 73.5152 357.45 73.8152C357.15 74.2152 356.85 74.6152 356.75 75.0152C356.65 75.4152 356.45 75.9152 356.45 76.4152Z" fill="#3AA491"/>
<path d="M382.55 70.1152V81.7152C382.55 82.8152 382.45 83.9152 382.15 84.8152C381.85 85.7152 381.45 86.5152 380.85 87.2152C380.25 87.8152 379.55 88.3152 378.65 88.7152C377.75 89.1152 376.65 89.2152 375.45 89.2152C374.25 89.2152 373.15 89.1152 372.05 88.7152C370.95 88.3152 370.05 87.9152 369.15 87.1152L371.05 84.5152C371.65 85.1152 372.35 85.5152 373.05 85.9152C373.75 86.2152 374.55 86.4152 375.45 86.4152C376.25 86.4152 376.85 86.3152 377.35 86.1152C377.85 85.9152 378.25 85.6152 378.55 85.2152C378.85 84.8152 379.05 84.4152 379.25 83.9152C379.35 83.4152 379.45 82.8152 379.45 82.2152V81.1152H379.35C378.85 81.7152 378.25 82.2152 377.55 82.5152C376.75 82.8152 376.05 83.0152 375.25 83.0152C374.25 83.0152 373.45 82.8152 372.65 82.5152C371.85 82.2152 371.25 81.7152 370.65 81.1152C370.05 80.5152 369.65 79.8152 369.35 79.0152C369.05 78.2152 368.85 77.4152 368.85 76.5152C368.85 75.6152 368.95 74.7152 369.25 73.9152C369.55 73.1152 369.95 72.4152 370.45 71.8152C370.95 71.2152 371.65 70.7152 372.45 70.4152C373.25 70.1152 374.05 69.9152 375.05 69.9152C375.95 69.9152 376.75 70.1152 377.55 70.4152C378.35 70.8152 378.95 71.3152 379.45 72.1152H379.55V70.1152H382.55V70.1152ZM375.85 72.6152C375.25 72.6152 374.75 72.7152 374.35 72.9152C373.85 73.1152 373.45 73.3152 373.15 73.7152C372.85 74.1152 372.55 74.4152 372.35 74.9152C372.15 75.4152 372.05 75.9152 372.05 76.4152C372.05 76.9152 372.15 77.4152 372.35 77.8152C372.55 78.2152 372.75 78.6152 373.15 79.0152C373.45 79.3152 373.85 79.6152 374.35 79.8152C374.85 80.0152 375.35 80.1152 375.85 80.1152C376.45 80.1152 376.95 80.0152 377.45 79.8152C377.95 79.6152 378.35 79.3152 378.65 79.0152C378.95 78.7152 379.25 78.3152 379.45 77.8152C379.65 77.3152 379.75 76.8152 379.75 76.3152C379.75 75.2152 379.45 74.3152 378.75 73.6152C377.95 73.0152 376.95 72.6152 375.85 72.6152V72.6152Z" fill="#3AA491"/>
<path d="M383.95 70.1152H387.45L390.95 78.9152H391.05L394.25 70.1152H397.55L391.55 85.5152C391.35 86.1152 391.05 86.6152 390.75 87.1152C390.45 87.6152 390.15 87.9152 389.75 88.2152C389.35 88.5152 388.95 88.7152 388.45 88.9152C387.95 89.0152 387.35 89.1152 386.65 89.1152C385.85 89.1152 385.05 89.0152 384.25 88.8152L384.65 85.9152C384.85 86.0152 385.15 86.1152 385.45 86.1152C385.75 86.1152 386.05 86.2152 386.25 86.2152C386.65 86.2152 386.95 86.2152 387.25 86.1152C387.55 86.0152 387.75 85.9152 387.95 85.8152C388.15 85.6152 388.25 85.5152 388.45 85.2152C388.55 85.0152 388.75 84.7152 388.85 84.3152L389.45 82.8152L383.95 70.1152Z" fill="#3AA491"/>
<path d="M113.35 22.4152C111.85 20.8152 110.05 19.6152 107.95 18.8152C105.85 18.0152 103.55 17.6152 101.15 17.6152C98.45 17.6152 96.05 18.1152 93.75 19.0152C91.45 19.9152 89.55 21.2152 87.85 22.8152C86.25 24.4152 84.85 26.4152 83.95 28.7152C83.05 31.0152 82.55 33.6152 82.55 36.4152C82.55 39.2152 83.05 41.8152 83.95 44.1152C84.95 46.4152 86.25 48.3152 87.95 49.9152C89.65 51.4152 91.65 52.6152 93.95 53.5152C96.25 54.4152 98.75 54.8152 101.45 54.8152C108.05 54.8152 113.15 52.4152 116.65 47.7152L116.75 47.5152L110.55 42.6152L110.35 42.8152C109.45 44.1152 108.25 45.2152 106.75 46.0152C105.25 46.8152 103.45 47.2152 101.35 47.2152C100.15 47.2152 98.95 47.0152 97.85 46.6152C96.75 46.2152 95.75 45.6152 94.85 44.9152C94.05 44.2152 93.25 43.3152 92.75 42.3152C92.25 41.3152 91.95 40.3152 91.85 39.2152H118.15V39.0152C118.25 38.6152 118.25 38.2152 118.25 37.8152V36.6152C118.25 33.4152 117.75 30.7152 116.95 28.3152C116.05 26.0152 114.85 24.0152 113.35 22.4152V22.4152ZM91.75 32.5152C92.05 30.2152 92.95 28.3152 94.65 26.8152C96.35 25.3152 98.55 24.5152 101.05 24.5152C102.35 24.5152 103.55 24.8152 104.55 25.2152C105.55 25.7152 106.45 26.3152 107.05 27.0152C107.65 27.8152 108.15 28.6152 108.45 29.6152C108.75 30.6152 108.95 31.5152 108.95 32.5152H91.75V32.5152Z" fill="#016428"/>
<path d="M155.15 18.6152H145.45L136.35 43.6152L127.35 18.6152H117.35L131.55 53.6152L131.65 53.8152H141.25L155.05 18.9152L155.15 18.6152Z" fill="#016428"/>
<path d="M185.05 22.4152C183.55 20.8152 181.75 19.6152 179.65 18.8152C177.55 18.0152 175.25 17.6152 172.85 17.6152C170.15 17.6152 167.75 18.1152 165.45 19.0152C163.15 19.9152 161.25 21.2152 159.55 22.8152C157.95 24.4152 156.55 26.4152 155.65 28.7152C154.75 31.0152 154.25 33.6152 154.25 36.4152C154.25 39.2152 154.75 41.8152 155.65 44.1152C156.65 46.4152 157.95 48.3152 159.65 49.9152C161.35 51.4152 163.35 52.6152 165.65 53.5152C167.95 54.4152 170.45 54.8152 173.15 54.8152C179.75 54.8152 184.85 52.4152 188.25 47.7152L188.35 47.5152L182.15 42.6152L181.95 42.8152C181.05 44.1152 179.85 45.2152 178.35 46.0152C176.85 46.8152 175.05 47.2152 172.95 47.2152C171.75 47.2152 170.55 47.0152 169.45 46.6152C168.35 46.2152 167.35 45.6152 166.45 44.9152C165.65 44.2152 164.85 43.3152 164.35 42.3152C163.85 41.3152 163.55 40.3152 163.45 39.2152H189.85V39.0152C189.95 38.6152 189.95 38.2152 189.95 37.8152V36.6152C189.95 33.4152 189.45 30.7152 188.65 28.3152C187.75 26.0152 186.55 24.0152 185.05 22.4152V22.4152ZM163.45 32.5152C163.75 30.2152 164.65 28.3152 166.35 26.8152C168.05 25.3152 170.25 24.5152 172.75 24.5152C174.05 24.5152 175.25 24.8152 176.25 25.2152C177.25 25.7152 178.15 26.3152 178.75 27.0152C179.35 27.8152 179.85 28.6152 180.15 29.6152C180.45 30.6152 180.65 31.5152 180.65 32.5152H163.45V32.5152Z" fill="#016428"/>
<path d="M215.15 17.6152H214.05C211.75 17.6152 209.65 18.2152 207.85 19.5152C206.25 20.7152 205.05 22.1152 204.05 23.9152V18.6152H195.25V53.8152H204.45V34.8152C204.45 34.2152 204.65 33.3152 204.85 32.3152C205.05 31.3152 205.45 30.3152 206.15 29.3152C206.75 28.3152 207.65 27.5152 208.85 26.8152C209.95 26.2152 211.55 25.8152 213.45 25.8152C213.85 25.8152 214.25 25.9152 214.65 25.9152C215.05 26.0152 215.55 26.1152 216.15 26.2152L216.45 26.3152V17.9152L216.25 17.8152C215.95 17.7152 215.55 17.6152 215.15 17.6152V17.6152ZM204.05 34.9152C204.05 34.9152 204.05 34.8252 204.05 34.7852C204.05 34.8652 204.05 34.9452 204.05 35.0152V34.9152V34.9152Z" fill="#016428"/>
<path d="M254.75 18.3152H246.05V23.1152C244.85 21.2152 243.25 19.7152 241.25 18.8152C239.05 17.8152 236.75 17.3152 234.25 17.3152C231.75 17.3152 229.25 17.8152 227.15 18.8152C225.05 19.8152 223.25 21.1152 221.75 22.8152C220.35 24.5152 219.15 26.5152 218.35 28.7152C217.55 31.0152 217.15 33.4152 217.15 35.9152C217.15 38.4152 217.55 40.8152 218.35 43.0152C219.15 45.2152 220.35 47.1152 221.85 48.8152C223.35 50.5152 225.25 51.8152 227.35 52.8152C229.55 53.8152 231.95 54.3152 234.55 54.3152C236.95 54.3152 239.15 53.8152 241.15 52.9152C242.95 52.0152 244.55 50.8152 245.75 49.3152V51.3152C245.75 53.0152 245.65 54.6152 245.25 56.0152C244.85 57.4152 244.25 58.7152 243.45 59.7152C242.65 60.7152 241.55 61.5152 240.15 62.1152C238.85 62.7152 237.05 63.0152 235.05 63.0152C232.95 63.0152 230.85 62.6152 228.75 61.8152C226.75 61.0152 224.85 59.8152 223.15 58.2152L222.95 58.0152L217.65 65.1152L217.85 65.3152C218.95 66.2152 220.25 67.1152 221.65 67.8152C223.05 68.5152 224.55 69.1152 226.05 69.6152C227.65 70.1152 229.15 70.5152 230.75 70.7152C232.35 71.0152 233.85 71.1152 235.25 71.1152C237.73 71.1152 239.95 70.8452 241.82 70.1952C242.56 70.0052 243.27 69.7852 243.95 69.5152C246.45 68.5152 248.45 67.2152 250.05 65.4152C251.65 63.7152 252.85 61.5152 253.65 59.0152C254.45 56.5152 254.85 53.6152 254.85 50.5152V18.9152H254.75V18.3152V18.3152ZM243.65 43.2152C242.75 44.2152 241.65 45.0152 240.45 45.6152C239.25 46.2152 237.75 46.5152 236.25 46.5152C234.75 46.5152 233.45 46.2152 232.25 45.6152C231.05 45.0152 230.05 44.2152 229.25 43.2152C228.45 42.2152 227.75 41.1152 227.35 39.8152C226.85 38.6152 226.65 37.3152 226.65 35.9152C226.65 34.4152 226.95 33.0152 227.35 31.7152C227.75 30.4152 228.45 29.3152 229.25 28.3152C230.05 27.3152 231.05 26.6152 232.25 26.0152C233.45 25.5152 234.85 25.2152 236.35 25.2152C237.85 25.2152 239.25 25.5152 240.55 25.8152C241.75 26.3152 242.75 27.1152 243.65 28.1152C244.55 29.0152 245.15 30.2152 245.65 31.5152C246.15 32.8152 246.35 34.2152 246.35 35.7152C246.35 37.1152 246.15 38.5152 245.65 39.8152C245.15 41.1152 244.55 42.2152 243.65 43.2152V43.2152ZM246.05 40.0152C246.54 38.7252 246.74 37.3452 246.75 35.8652C246.75 35.8852 246.75 35.8952 246.75 35.9152C246.75 37.3152 246.55 38.7152 246.05 40.0152Z" fill="#016428"/>
<path d="M282.25 17.6152H281.15C278.85 17.6152 276.75 18.2152 274.95 19.5152C273.35 20.7152 272.15 22.1152 271.15 23.9152V18.6152H262.35V53.8152H271.55V34.8152C271.55 34.2152 271.75 33.3152 271.95 32.3152C272.15 31.3152 272.55 30.3152 273.25 29.3152C273.85 28.4152 274.75 27.5152 275.95 26.8152C277.05 26.2152 278.65 25.8152 280.55 25.8152C280.95 25.8152 281.35 25.9152 281.75 25.9152C282.25 26.0152 282.65 26.1152 283.25 26.2152L283.55 26.3152V17.9152L283.35 17.8152C283.05 17.7152 282.65 17.6152 282.25 17.6152V17.6152Z" fill="#016428"/>
<path d="M315.05 22.4152C313.55 20.8152 311.75 19.6152 309.65 18.8152C307.55 18.0152 305.25 17.6152 302.85 17.6152C300.15 17.6152 297.75 18.1152 295.45 19.0152C293.15 19.9152 291.25 21.2152 289.55 22.8152C287.95 24.4152 286.55 26.4152 285.65 28.7152C284.75 31.0152 284.25 33.6152 284.25 36.4152C284.25 39.2152 284.75 41.8152 285.65 44.1152C286.65 46.4152 287.95 48.4152 289.65 49.9152C291.35 51.4152 293.35 52.7152 295.65 53.5152C297.95 54.4152 300.45 54.8152 303.15 54.8152C309.65 54.8152 314.75 52.4152 318.25 47.7152L318.35 47.5152L312.15 42.6152L311.95 42.8152C311.05 44.1152 309.85 45.2152 308.35 46.0152C306.85 46.8152 305.05 47.2152 302.95 47.2152C301.75 47.2152 300.55 47.0152 299.45 46.6152C298.35 46.2152 297.35 45.6152 296.45 44.9152C295.65 44.2152 294.85 43.3152 294.35 42.3152C293.85 41.3152 293.55 40.3152 293.45 39.2152H319.85V39.0152C319.95 38.6152 319.95 38.2152 319.95 37.8152V36.6152C319.95 33.4152 319.45 30.7152 318.65 28.3152C317.75 26.0152 316.55 24.0152 315.05 22.4152V22.4152ZM293.45 32.5152C293.65 30.2152 294.65 28.3152 296.35 26.8152C298.05 25.3152 300.25 24.5152 302.75 24.5152C304.05 24.5152 305.25 24.8152 306.25 25.2152C307.25 25.7152 308.15 26.3152 308.75 27.0152C309.35 27.8152 309.85 28.6152 310.15 29.6152C310.45 30.6152 310.65 31.5152 310.65 32.5152H293.45V32.5152Z" fill="#016428"/>
<path d="M354.05 22.4152C352.55 20.8152 350.75 19.6152 348.65 18.8152C346.55 18.0152 344.25 17.6152 341.85 17.6152C339.15 17.6152 336.75 18.1152 334.45 19.0152C332.15 19.9152 330.25 21.2152 328.55 22.8152C326.95 24.4152 325.55 26.4152 324.65 28.7152C323.75 31.0152 323.25 33.6152 323.25 36.4152C323.25 39.2152 323.75 41.8152 324.65 44.1152C325.65 46.4152 326.95 48.3152 328.65 49.9152C330.35 51.4152 332.35 52.6152 334.65 53.5152C336.95 54.4152 339.45 54.8152 342.15 54.8152C348.75 54.8152 353.75 52.4152 357.25 47.7152L357.35 47.5152L351.15 42.6152L350.95 42.8152C350.05 44.1152 348.85 45.2152 347.35 46.0152C345.85 46.8152 344.05 47.2152 341.95 47.2152C340.75 47.2152 339.55 47.0152 338.45 46.6152C337.35 46.2152 336.35 45.6152 335.45 44.9152C334.65 44.2152 333.85 43.3152 333.35 42.3152C332.85 41.3152 332.55 40.3152 332.45 39.2152H358.85V39.0152C358.95 38.6152 358.95 38.2152 358.95 37.8152V36.6152C358.95 33.4152 358.45 30.7152 357.65 28.3152C356.75 26.0152 355.55 24.0152 354.05 22.4152V22.4152ZM332.45 32.5152C332.65 30.2152 333.65 28.3152 335.35 26.8152C337.05 25.3152 339.25 24.5152 341.75 24.5152C343.05 24.5152 344.25 24.8152 345.25 25.2152C346.25 25.7152 347.15 26.3152 347.75 27.0152C348.35 27.8152 348.85 28.6152 349.15 29.6152C349.45 30.6152 349.65 31.5152 349.65 32.5152H332.45V32.5152Z" fill="#016428"/>
<path d="M396.05 26.7152C395.55 25.0152 394.75 23.4152 393.75 22.1152C392.65 20.8152 391.25 19.7152 389.65 18.9152C388.05 18.1152 386.05 17.7152 383.75 17.7152C381.15 17.7152 378.75 18.4152 376.85 19.7152C375.15 20.9152 373.85 22.2152 373.05 23.7152V18.7152H364.35V53.9152H373.55V34.6152C373.55 33.4152 373.75 32.3152 374.05 31.2152C374.35 30.1152 374.85 29.1152 375.45 28.3152C376.05 27.4152 376.85 26.7152 377.85 26.2152C378.85 25.7152 380.05 25.4152 381.35 25.4152C382.65 25.4152 383.75 25.7152 384.55 26.2152C385.35 26.7152 385.95 27.4152 386.45 28.3152C386.95 29.2152 387.25 30.1152 387.35 31.2152C387.45 32.2152 387.55 33.3152 387.55 34.3152V53.8152H396.75V32.0152C396.75 30.2152 396.55 28.4152 396.05 26.7152V26.7152Z" fill="#016428"/>
<path d="M36.45 0.115234C16.65 0.115234 0.450012 16.2152 0.450012 36.1152C0.450012 56.0152 16.55 72.1152 36.45 72.1152C56.35 72.1152 72.45 56.0152 72.45 36.1152C72.45 16.2152 56.35 0.115234 36.45 0.115234ZM40.15 65.8052V57.4152L59.35 41.9152L56.45 36.1152L40.15 49.3152V40.6152L53.35 30.1152L50.55 24.3152L40.05 32.7152V24.1152L47.35 18.1152L44.25 12.0152L36.15 18.5152L28.45 12.1152L25.35 18.2152L32.45 24.1152V32.7152L22.15 24.4152L19.35 30.2152L32.35 40.6152V49.3152L16.35 36.1152L13.55 42.0152L32.55 57.4152V65.7152C17.95 63.8152 6.55001 51.2152 6.55001 36.1152C6.55001 19.6152 19.95 6.21523 36.45 6.21523C52.95 6.21523 66.35 19.6152 66.35 36.1152C66.35 51.3852 54.9 63.9552 40.15 65.8052V65.8052Z" fill="#016428"/>
</g>
<defs>
<clipPath id="clip0_707_66">
<rect width="397.1" height="89.1" fill="white" transform="translate(0.450012 0.115234)"/>
</clipPath>
</defs>
</svg>
